<svg width="18" height="18" viewBox="0 0 18 18" fill="none" xmlns="http://www.w3.org/2000/svg">
<g opacity="0.4">
<rect x="0.5" y="0.5" width="17" height="17" rx="8.5" stroke="black"/>
<path d="M8.18672 10.876C8.17872 10.836 8.17472 10.792 8.17472 10.744C8.17472 10.696 8.17472 10.652 8.17472 10.612C8.17472 10.276 8.22272 9.98 8.31872 9.724C8.42272 9.468 8.54672 9.236 8.69072 9.028C8.84272 8.812 9.00272 8.612 9.17072 8.428C9.34672 8.244 9.50672 8.06 9.65072 7.876C9.80272 7.684 9.92672 7.484 10.0227 7.276C10.1267 7.06 10.1787 6.816 10.1787 6.544C10.1787 6.176 10.0707 5.876 9.85472 5.644C9.64672 5.412 9.29472 5.296 8.79872 5.296C8.51072 5.296 8.21872 5.348 7.92272 5.452C7.62672 5.548 7.37072 5.664 7.15472 5.8L6.83072 5.056C7.13472 4.872 7.45472 4.728 7.79072 4.624C8.12672 4.512 8.54272 4.456 9.03872 4.456C9.39072 4.456 9.69872 4.508 9.96272 4.612C10.2347 4.708 10.4587 4.844 10.6347 5.02C10.8187 5.196 10.9547 5.404 11.0427 5.644C11.1307 5.884 11.1747 6.14 11.1747 6.412C11.1747 6.772 11.1187 7.088 11.0067 7.36C10.9027 7.624 10.7667 7.868 10.5987 8.092C10.4387 8.308 10.2627 8.512 10.0707 8.704C9.88672 8.896 9.71072 9.1 9.54272 9.316C9.38272 9.524 9.24672 9.752 9.13472 10C9.03072 10.248 8.97872 10.54 8.97872 10.876H8.18672ZM7.94672 12.448C7.94672 12.232 8.00672 12.064 8.12672 11.944C8.25472 11.816 8.42272 11.752 8.63072 11.752C8.84672 11.752 9.01872 11.816 9.14672 11.944C9.27472 12.064 9.33872 12.232 9.33872 12.448C9.33872 12.656 9.27472 12.824 9.14672 12.952C9.01872 13.08 8.84672 13.144 8.63072 13.144C8.42272 13.144 8.25472 13.08 8.12672 12.952C8.00672 12.824 7.94672 12.656 7.94672 12.448Z" fill="black"/>
</g>
</svg>
