<svg width="142" height="32" viewBox="0 0 142 32" fill="none" xmlns="http://www.w3.org/2000/svg">
<path fill-rule="evenodd" clip-rule="evenodd" d="M0.345942 0H26.3603H26.6727H26.7062V0.0343488V0.346759V20.7974V20.8914V20.8947V20.8963V20.9168V20.9176L26.7054 20.9822V21.1106V21.145H26.7021C26.6604 22.3807 26.2809 23.6532 25.6283 24.8726C24.9585 26.1223 24.0008 27.3171 22.824 28.3582C21.5882 29.4508 20.108 30.3766 18.4641 31.0211C16.9421 31.6181 15.2803 31.9738 13.5416 31.9975L13.3527 32C11.6271 32 9.97587 31.6892 8.46126 31.1421C6.84359 30.5582 5.38049 29.706 4.14394 28.6772C2.89675 27.6393 1.88019 26.4208 1.16541 25.1155C0.470251 23.8463 0.062155 22.4936 0.00654263 21.145H0V21.1106V20.8301V20.799V0.345942V0.0343488V0H0.0343488H0.345942ZM9.63075 28.1783H10.0127V27.0947L10.0536 26.9082L9.9219 27.0701L9.67737 27.2378L9.52607 27.0317L10.1517 26.5271H10.3521V28.1791H10.725V28.4809H9.62993V28.1783H9.63075ZM11.6238 28.0115C11.6238 27.9477 11.632 27.8904 11.6483 27.8397C11.6647 27.789 11.6884 27.7432 11.7178 27.7023C11.7481 27.6614 11.7841 27.6238 11.825 27.5911C11.8659 27.5584 11.91 27.5281 11.9583 27.5003C11.8683 27.4439 11.798 27.3785 11.7473 27.304C11.6958 27.2296 11.6704 27.138 11.6704 27.0284C11.6704 26.9573 11.6835 26.8902 11.7105 26.8281C11.7367 26.7659 11.7751 26.7119 11.8258 26.6661C11.8757 26.6203 11.937 26.5843 12.0082 26.559C12.0793 26.5336 12.1603 26.5205 12.2494 26.5205C12.332 26.5205 12.4065 26.5312 12.4743 26.5533C12.5422 26.5753 12.6003 26.6064 12.6485 26.6465C12.6968 26.6866 12.7344 26.7356 12.7614 26.7929C12.7876 26.851 12.8015 26.9139 12.8015 26.9834C12.8015 27.0914 12.7769 27.183 12.7287 27.2574C12.6804 27.3327 12.6093 27.4014 12.516 27.4635C12.6256 27.5273 12.7082 27.5984 12.7647 27.6745C12.8203 27.7514 12.8481 27.8503 12.8481 27.9706C12.8481 28.0532 12.8334 28.1276 12.8031 28.1938C12.7728 28.2609 12.7303 28.3181 12.6755 28.3656C12.6207 28.413 12.5545 28.4498 12.4776 28.4768C12.4007 28.5038 12.3165 28.5169 12.2249 28.5169C12.1333 28.5169 12.0507 28.5046 11.9763 28.4801C11.9019 28.4555 11.8389 28.4212 11.7865 28.377C11.7342 28.3329 11.6941 28.2797 11.6655 28.2175C11.6377 28.1578 11.6238 28.0875 11.6238 28.0115ZM12.5079 27.9755C12.5079 27.9329 12.4981 27.8953 12.4776 27.8602C12.4572 27.8258 12.4318 27.7939 12.3991 27.7653C12.3672 27.7367 12.3312 27.7105 12.292 27.6868C12.2527 27.6631 12.2126 27.6402 12.1726 27.6181C12.0867 27.6671 12.0278 27.7211 11.9959 27.7784C11.964 27.8356 11.9477 27.8929 11.9477 27.9501C11.9477 28.0237 11.973 28.0859 12.0229 28.1382C12.0736 28.1906 12.1431 28.2167 12.2331 28.2167C12.3157 28.2167 12.3819 28.1963 12.4318 28.1562C12.4825 28.1161 12.5079 28.0556 12.5079 27.9755ZM12.0106 27.0341C12.0106 27.0783 12.0188 27.1167 12.0352 27.1495C12.0515 27.1822 12.0736 27.2108 12.1022 27.2361C12.1309 27.2607 12.1627 27.2836 12.1979 27.3048C12.2339 27.3261 12.2707 27.3457 12.3091 27.3637C12.4187 27.2705 12.4735 27.1683 12.4735 27.0562C12.4735 26.9793 12.4514 26.9213 12.4065 26.882C12.3615 26.8428 12.3075 26.8231 12.2429 26.8231C12.1627 26.8231 12.103 26.8444 12.0662 26.8861C12.0294 26.9278 12.0106 26.9769 12.0106 27.0341ZM13.6692 27.5175C13.6692 27.1805 13.7264 26.9303 13.8417 26.7667C13.9571 26.6032 14.1223 26.5205 14.3382 26.5205C14.5688 26.5205 14.7381 26.6015 14.846 26.7634C14.954 26.9254 15.008 27.1764 15.008 27.5167C15.008 27.8552 14.9499 28.1063 14.8338 28.2715C14.7176 28.4359 14.5516 28.5185 14.3357 28.5185C14.1067 28.5185 13.9391 28.4318 13.8311 28.2593C13.7232 28.0867 13.6692 27.8389 13.6692 27.5175ZM14.0258 27.5175C14.0258 27.7407 14.0503 27.9133 14.0985 28.0352C14.1468 28.157 14.2269 28.2175 14.339 28.2175C14.4469 28.2175 14.5263 28.1619 14.5762 28.0499C14.6269 27.9387 14.6514 27.7604 14.6514 27.5175C14.6514 27.2959 14.6277 27.1249 14.5802 27.0039C14.5328 26.8828 14.451 26.8223 14.3357 26.8223C14.2261 26.8223 14.1468 26.8788 14.0985 26.9924C14.0503 27.1061 14.0258 27.2811 14.0258 27.5175ZM17.1801 27.9452H16.8783V28.4801H16.5463V27.9452H15.7146V27.7424L16.5847 26.5459H16.8783V27.6598H17.1801V27.9452ZM16.5455 27.2394L16.57 27.0088H16.5594L16.4662 27.2067L16.1807 27.5772L16.0433 27.6819L16.2192 27.6598H16.5455V27.2394ZM9.32979 7.8806C8.52014 7.42507 8.17338 8.08914 7.37763 8.25353C6.49601 8.4359 6.2613 7.74893 5.88591 7.13556C6.50664 7.26559 6.54263 7.55755 7.35228 7.00307C7.94684 6.59579 8.70006 6.8624 9.14005 7.36373L8.65017 6.04621C10.1108 6.03394 11.7563 5.84339 13.1973 6.04621L13.3797 6.07647C14.9213 6.3807 16.0851 7.70067 16.0851 9.3715C16.0851 10.5942 15.3858 11.9526 14.3619 12.6755V12.8293C15.7309 12.5152 17.2971 11.3686 17.4369 10.725C17.2366 10.6465 16.7557 10.3709 16.7614 10.3374C16.2257 9.95298 15.9951 9.18667 16.1219 8.60601C16.2486 8.02535 16.5185 7.74484 16.9045 7.51094C17.1703 7.376 17.4108 7.29503 17.6986 7.26559L24.9045 6.24903C24.9389 6.49274 24.9618 6.74054 24.974 6.98753C25.1826 11.3948 21.7771 15.1388 17.3699 15.3474C15.8626 15.4185 13.9186 14.5843 13.2341 13.1597C13.1981 13.1654 13.1621 13.1719 13.1261 13.176C12.8644 13.2047 12.6207 13.2496 12.3942 13.3085C12.1644 14.267 14.1247 15.0112 16.3975 15.3768L16.0335 15.9043C16.4637 15.7686 16.9209 15.695 17.396 15.695C19.8945 15.695 21.9203 17.7207 21.9203 20.22C21.9203 22.7185 19.8937 24.7442 17.396 24.7442C14.8976 24.7442 12.8718 22.7185 12.8718 20.22C12.8718 19.9632 12.8939 19.7113 12.9348 19.4668L13.0893 19.4897L15.8283 19.6761C15.6925 19.8986 15.614 20.1595 15.614 20.44C15.614 21.2496 16.2707 21.9064 17.0804 21.9064C17.89 21.9064 18.5467 21.2496 18.5467 20.44C18.5467 19.6434 17.9104 18.9949 17.1188 18.9744L17.1139 18.9605L16.934 18.9818C16.9168 18.9834 16.8988 18.9859 16.8808 18.9875L14.5214 19.2648C13.4909 19.4341 12.5995 19.5019 11.8381 19.4774L8.57411 23.9297L8.16602 22.8485C5.85892 22.6547 6.65712 23.7219 7.17399 24.1587C7.2247 24.2012 7.2247 24.3795 7.17726 24.4187C6.32999 24.3541 5.58904 23.6737 5.58904 22.7888C5.58904 21.9031 6.32427 21.1466 7.23124 21.1466C7.83643 21.1466 8.36475 21.4737 8.64936 21.9612L10.1313 17.2873H9.89654L8.99939 18.5762C8.47107 18.0241 8.05807 17.3592 7.8029 16.6216L5.29871 13.5203C5.19239 13.7608 5.02965 13.9701 4.82846 14.1329L4.32877 12.8088C3.22143 12.754 2.53772 13.0215 3.11184 13.863L3.35228 13.8655L3.3212 13.45H4.01636L3.90677 14.9049L3.90759 14.9156H3.90595L3.90431 14.9417H3.42834L3.4267 14.8444L3.39154 14.3766C2.75772 14.1501 2.15825 13.6512 2.15825 12.8554C2.15825 12.2429 2.57289 11.6246 3.16336 11.3547L2.84277 7.09221L2.06584 6.10754H3.37927C3.3302 5.56205 3.49867 4.97076 3.81926 4.49479C3.52811 4.54386 3.25987 4.70006 2.9998 5.13188C2.82805 4.19546 3.61317 2.99162 4.6837 3.17154C5.75833 3.3531 5.65856 3.04151 6.22368 2.62032C6.1836 2.96872 6.17706 3.31957 6.10018 3.62216C7.20671 3.74238 7.15682 3.33756 7.86833 2.80679C7.74075 3.90595 7.85852 5.01738 6.50992 5.33224C5.28072 5.6193 4.3623 4.90043 3.51993 6.10673H3.6696H5.27172L4.49724 7.08894L4.18319 11.2582C4.44817 11.3212 4.68861 11.4488 4.88571 11.6238L6.88448 12.8236L7.32284 14.4469H7.52811C7.73829 11.7293 9.97424 9.57923 12.7279 9.50399L12.6207 9.23574L9.8532 9.24882L9.32979 7.8806ZM9.20548 7.44388C9.29299 7.55592 9.36414 7.67859 9.41566 7.80617C10.595 8.01717 12.7818 9.37722 12.0515 7.44388H9.20548ZM11.129 3.50849H11.8422V3.67941H12.0671V4.23308C11.9231 4.29278 11.8209 4.43508 11.8209 4.60029C11.8209 4.77612 11.9354 4.92496 12.0932 4.97731L12.0957 4.97812L12.1022 4.98058H12.103L12.1071 4.98139L12.1112 4.98303L12.1137 4.98385L12.1202 4.98548L12.1227 4.9863L12.1251 4.98712L12.1276 4.98794H12.1284L12.13 4.98876H12.1325L12.1349 4.98957L12.139 4.99039H12.1398L12.1423 4.99121L12.1448 4.99203H12.1472H12.148L12.1546 4.99284L12.157 4.99366H12.1578L12.1611 4.99448H12.1619H12.1644H12.1668H12.1685H12.1701H12.1726H12.175H12.1791H12.1824H12.1848H12.1873H12.1922H12.1946H12.1987H12.1995H12.2094H12.2135H12.2143H12.2167H12.2192C12.4384 4.99448 12.6166 4.81701 12.6166 4.59783V4.59047V4.58802V4.58066L12.6158 4.5733C12.6158 4.56839 12.615 4.5643 12.615 4.55939L12.6142 4.55367V4.55285L12.6134 4.54631V4.54549C12.6126 4.53731 12.6109 4.52832 12.6093 4.52014L12.6085 4.51687L12.6068 4.50951L12.6036 4.4956L12.6019 4.48906V4.48824L12.5995 4.48007L12.5986 4.47843L12.5978 4.47516C12.5782 4.41464 12.5447 4.35984 12.5005 4.31568L12.4997 4.31486L12.4948 4.30996L12.4899 4.30505L12.4866 4.30178L12.4842 4.30014L12.4792 4.29605L12.4743 4.29197L12.4719 4.29033L12.4645 4.2846L12.4629 4.28379C12.4588 4.28052 12.4539 4.27724 12.4498 4.27397L12.449 4.27315L12.4457 4.27152L12.4408 4.26825L12.44 4.26743L12.4343 4.26334L12.4326 4.26252L12.431 4.26498C12.4261 4.26171 12.4212 4.25925 12.4163 4.25598C12.4106 4.25271 12.4048 4.25026 12.3991 4.24698L12.3975 4.24617L12.3909 4.2429H12.3901L12.3844 4.24044V4.1374C12.3844 3.81026 12.6723 3.3809 12.9986 3.37273L13.6054 3.35637L12.7385 5.62503L10.2588 5.6332L9.39358 3.36455L9.97015 3.37273C10.2973 3.37681 10.5843 3.81108 10.5843 4.1374V4.24126C10.5042 4.27888 10.4388 4.34185 10.3987 4.42036V4.42118L10.3954 4.42691L10.3946 4.42854L10.3905 4.43672L10.3897 4.43917L10.3864 4.44572L10.384 4.45226L10.3832 4.45471L10.3799 4.46371L10.3791 4.46534L10.3766 4.47189V4.4727C10.3717 4.48824 10.3676 4.50378 10.3635 4.52014C10.3611 4.53322 10.3586 4.54549 10.3578 4.55858V4.56021C10.357 4.56594 10.3562 4.57166 10.3562 4.57739V4.57902V4.58066V4.58884V4.59129V4.59865C10.3562 4.81783 10.5336 4.9953 10.7528 4.9953H10.7553H10.7577H10.7585H10.7626H10.7724H10.7733H10.7773H10.7798H10.7847H10.7872H10.7896H10.7929H10.797H10.7994H10.8019H10.8027H10.8043H10.8068H10.8092H10.8117H10.8133H10.815L10.8174 4.99448H10.8199L10.824 4.99366H10.8248H10.8272L10.8297 4.99284L10.8321 4.99203L10.8362 4.99121L10.8387 4.99039H10.8411L10.8436 4.98957L10.8583 4.9863L10.8608 4.98548C11.0284 4.93887 11.1511 4.78512 11.1511 4.60274C11.1511 4.43672 11.0497 4.29524 10.9049 4.23554V3.68186H11.1298V3.50849H11.129ZM21.0836 17.1965C22.9965 16.4204 24.772 15.1241 25.1777 11.8945C24.8007 13.4893 23.9722 14.3717 22.9336 14.8599C21.8229 15.3834 20.4719 15.4561 19.1748 15.4692C20.0507 15.8479 20.6428 16.3917 21.0836 17.1965ZM26.0143 0.691883H0.692701V20.4506H0.695154L0.694336 20.485L0.691883 20.7066V20.7941V20.8285C0.691883 22.128 1.05663 23.4431 1.71499 24.6804C2.38888 25.9481 3.37191 27.1364 4.58557 28.1464C5.7616 29.1253 7.15436 29.9358 8.69434 30.4911C10.1362 31.0112 11.708 31.3065 13.3527 31.3065H13.5334C15.1863 31.2836 16.7679 30.945 18.2155 30.3766C19.78 29.7624 21.1891 28.8808 22.366 27.8397C23.5028 26.8346 24.4212 25.6839 25.0525 24.485C25.6716 23.3098 26.0135 22.0887 26.0135 20.916C26.0135 20.8669 26.0143 20.8546 26.0143 20.8481V20.8317V20.8309H26.0127V20.7966V20.7442L26.0086 20.485L26.0078 20.4506H26.0119V0.691883H26.0143Z" fill="#1F5CB8"/>
<path d="M37.9671 6.55187H42.8732C42.8364 6.06608 42.7366 5.61873 42.5723 5.21145C42.4079 4.80417 42.1862 4.45496 41.9065 4.16299C41.6269 3.87103 41.2801 3.64286 40.8671 3.47929C40.4533 3.31491 39.9855 3.23312 39.4629 3.23312C38.8062 3.23312 38.2345 3.30346 37.7487 3.44249C37.2621 3.58234 36.8671 3.73772 36.5629 3.90783L36.0337 1.79211C36.459 1.57293 36.9939 1.3881 37.6383 1.23599C38.2828 1.08387 38.9207 1.00781 39.5537 1.00781C40.3928 1.00781 41.1681 1.12394 41.8787 1.35457C42.5903 1.58602 43.2036 1.96549 43.7205 2.49462C44.2374 3.02376 44.6414 3.71074 44.9333 4.55555C45.2253 5.40037 45.3709 6.43083 45.3709 7.64694C45.3709 8.91131 45.2008 9.96958 44.8605 10.8201C44.5203 11.6715 44.064 12.3519 43.4923 12.8631C42.9207 13.3734 42.2639 13.7381 41.523 13.9573C40.7812 14.1765 40.0092 14.2853 39.2069 14.2853C38.5142 14.2853 37.8845 14.2239 37.3194 14.1029C36.7542 13.9818 36.3012 13.8412 35.9609 13.6833L36.6177 11.5128C36.8974 11.6469 37.2744 11.7713 37.7487 11.8866C38.2231 12.0019 38.7702 12.0599 39.3901 12.0599C39.8644 12.0599 40.302 11.9929 40.7035 11.8596C41.1051 11.7263 41.46 11.5161 41.77 11.2307C42.0799 10.9452 42.3326 10.5829 42.5265 10.1454C42.7211 9.70787 42.8421 9.17874 42.8912 8.55882H37.9671V6.55187Z" fill="#1F5CB8"/>
<path d="M51.4666 7.00707H49.6609C49.5881 7.8707 49.503 8.72778 49.4057 9.57832C49.3084 10.4297 49.153 11.1927 48.9403 11.8674C48.7277 12.5421 48.439 13.0893 48.0743 13.5088C47.7095 13.9284 47.2352 14.1377 46.6521 14.1377C45.9471 14.1377 45.4482 14.0478 45.1562 13.8687L45.4482 11.9312C45.6429 12.004 45.8252 12.0408 45.9953 12.0408C46.2382 12.0408 46.4517 11.9369 46.6341 11.7292C46.8164 11.5215 46.971 11.1486 47.0994 10.6112C47.227 10.0731 47.33 9.34279 47.4094 8.42028C47.4887 7.49777 47.5459 6.32745 47.5828 4.91016H53.8383V14.0289H51.4674V7.00707H51.4666Z" fill="#1F5CB8"/>
<path d="M63.1935 13.2459C62.8288 13.5379 62.3332 13.784 61.7075 13.9844C61.0811 14.1848 60.4153 14.2854 59.7104 14.2854C58.2391 14.2854 57.1628 13.8568 56.4824 12.9997C55.8012 12.1427 55.4609 10.9666 55.4609 9.47081C55.4609 7.86623 55.8437 6.66238 56.61 5.86009C57.3763 5.0578 58.4517 4.65625 59.838 4.65625C60.3 4.65625 60.7498 4.71759 61.1874 4.83863C61.6249 4.96048 62.0142 5.16085 62.3544 5.44055C62.6946 5.72024 62.9678 6.09726 63.1755 6.5716C63.3824 7.04595 63.4855 7.6356 63.4855 8.34057C63.4855 8.59573 63.4699 8.8697 63.4397 9.16167C63.4094 9.45363 63.3636 9.75787 63.3031 10.0735H57.8498C57.8858 10.8399 58.0829 11.4172 58.4403 11.8065C58.7977 12.1958 59.3767 12.3905 60.1757 12.3905C60.6721 12.3905 61.1179 12.3144 61.5112 12.1623C61.9054 12.0102 62.2048 11.8556 62.4108 11.6969L63.1935 13.2459ZM59.8093 6.5528C59.1927 6.5528 58.7363 6.73844 58.4395 7.10892C58.1434 7.48021 57.9651 7.975 57.9046 8.59491H61.2782C61.3264 7.9382 61.2266 7.4336 60.9788 7.08111C60.7318 6.72945 60.3417 6.5528 59.8093 6.5528Z" fill="#1F5CB8"/>
<path d="M68.1737 10.2538H67.5358V14.0289H65.1641V4.91016H67.5349V8.79484L68.1001 8.53968L70.2338 4.91016H72.7691L70.5626 8.3753L69.6327 9.068L70.6541 9.77951L73.1166 14.0289H70.3982L68.1737 10.2538Z" fill="#1F5CB8"/>
<path d="M80.6487 7.00789H78.0774V14.0289H75.6338V7.00789H73.0625V4.91016H80.6495V7.00789H80.6487Z" fill="#1F5CB8"/>
<path d="M81.7031 4.91141H83.4361L83.7093 6.00567H83.782C84.0977 5.54359 84.4723 5.20338 84.9033 4.9842C85.3351 4.76502 85.861 4.65625 86.4809 4.65625C87.6234 4.65625 88.4805 5.01855 89.0521 5.74151C89.6238 6.46529 89.9092 7.62906 89.9092 9.23364C89.9092 10.0122 89.8184 10.7139 89.6361 11.3404C89.4537 11.9668 89.183 12.4984 88.8248 12.9359C88.4658 13.3735 88.0282 13.708 87.5113 13.9386C86.9945 14.1692 86.4015 14.2854 85.7334 14.2854C85.3564 14.2854 85.0464 14.2584 84.8035 14.2036C84.5598 14.1488 84.3169 14.0605 84.074 13.9394V17.6785H81.7031V4.91141ZM85.7702 6.66238C85.3081 6.66238 84.9466 6.7777 84.6849 7.00914C84.4232 7.24059 84.2196 7.58653 84.074 8.0486V11.8417C84.2441 11.9758 84.4298 12.0821 84.6301 12.1606C84.8305 12.24 85.0955 12.2792 85.4234 12.2792C86.1039 12.2792 86.615 12.0396 86.9552 11.5587C87.2954 11.0787 87.4655 10.2854 87.4655 9.17884C87.4655 8.37655 87.3314 7.75664 87.064 7.31828C86.7974 6.88074 86.3664 6.66238 85.7702 6.66238Z" fill="#1F5CB8"/>
<path d="M91.1172 9.47162C91.1172 7.92756 91.4942 6.73926 92.2482 5.90589C93.0023 5.07334 94.0597 4.65625 95.4214 4.65625C96.1509 4.65625 96.7831 4.77156 97.318 5.00301C97.8528 5.23445 98.2969 5.55913 98.6494 5.97868C99.0019 6.39822 99.266 6.9061 99.4427 7.50148C99.6185 8.09767 99.7068 8.75357 99.7068 9.47081C99.7068 11.0149 99.3331 12.204 98.5856 13.0365C97.8381 13.8691 96.7831 14.2862 95.4214 14.2862C94.6919 14.2862 94.0597 14.1709 93.5249 13.9394C92.99 13.7088 92.5427 13.3833 92.1845 12.9638C91.8254 12.5442 91.558 12.0372 91.3822 11.441C91.2055 10.8456 91.1172 10.1889 91.1172 9.47162ZM93.5609 9.47162C93.5609 9.87318 93.5977 10.2437 93.6704 10.5839C93.7432 10.9241 93.8528 11.2226 93.9984 11.4778C94.144 11.7329 94.3362 11.9308 94.5725 12.0707C94.8097 12.2105 95.0927 12.28 95.4206 12.28C96.0405 12.28 96.5026 12.0551 96.8068 11.6053C97.1102 11.1555 97.2632 10.444 97.2632 9.47162C97.2632 8.63253 97.1233 7.95537 96.8436 7.4385C96.5639 6.92163 96.0896 6.6632 95.4214 6.6632C94.8375 6.6632 94.382 6.88238 94.0532 7.31992C93.7252 7.75746 93.5609 8.47469 93.5609 9.47162Z" fill="#1F5CB8"/>
<path d="M106.687 10.4362H103.715V14.0289H101.344V4.91016H103.715V8.3385H106.687V4.91016H109.058V14.0289H106.687V10.4362Z" fill="#1F5CB8"/>
<path d="M116.484 10.4362H113.512V14.0289H111.141V4.91016H113.512V8.3385H116.484V4.91016H118.855V14.0289H116.484V10.4362Z" fill="#1F5CB8"/>
<path d="M123.309 8.1558C123.601 8.10755 123.896 8.07402 124.194 8.05521C124.492 8.03721 124.762 8.02822 125.005 8.02822C125.625 8.02822 126.142 8.09855 126.555 8.23758C126.968 8.37743 127.303 8.57535 127.559 8.83051C127.814 9.08567 127.996 9.38663 128.106 9.73339C128.215 10.0802 128.27 10.4539 128.27 10.8546C128.27 11.4018 128.197 11.8818 128.051 12.2956C127.905 12.7095 127.668 13.0521 127.339 13.3261C127.012 13.5993 126.585 13.8062 126.063 13.946C125.54 14.0859 124.896 14.1554 124.129 14.1554C123.437 14.1554 122.837 14.1431 122.333 14.1186C121.828 14.0941 121.363 14.0638 120.938 14.027V4.9082H123.308V8.1558H123.309ZM123.309 12.0405C123.674 12.1133 124.021 12.1501 124.349 12.1501C124.896 12.1501 125.279 12.0495 125.498 11.8491C125.717 11.6487 125.826 11.3355 125.826 10.9102C125.826 10.521 125.716 10.2265 125.498 10.0254C125.279 9.82499 124.914 9.7244 124.403 9.7244C124.002 9.7244 123.637 9.76692 123.309 9.85198V12.0405ZM129.309 4.90984H131.68V14.0286H129.309V4.90984Z" fill="#1F5CB8"/>
<path d="M139.239 9.87266L139.331 8.57803H139.276L138.492 9.90946L135.246 14.0313H133.75V4.91253H136.121V9.25274L136.011 10.4926H136.084L136.832 9.19795L140.114 4.91253H141.61V14.0313H139.239V9.87266ZM136.704 1.19141C136.789 1.66575 136.932 2.00024 137.133 2.19488C137.333 2.38953 137.591 2.48685 137.908 2.48685C138.248 2.48685 138.519 2.38953 138.719 2.19488C138.919 2.00024 139.056 1.67229 139.13 1.21022L140.935 1.66656C140.79 2.4574 140.431 3.04379 139.859 3.42653C139.288 3.80928 138.619 4.00065 137.853 4.00065C137.476 4.00065 137.111 3.95812 136.759 3.87307C136.406 3.78801 136.09 3.65144 135.81 3.46252C135.53 3.27442 135.293 3.03397 135.099 2.74201C134.904 2.45004 134.771 2.09184 134.697 1.66575L136.704 1.19141Z" fill="#1F5CB8"/>
<path d="M39.0602 24.6888L39.3792 25.7806H39.4405L39.6859 24.652L41.3297 20.1621H42.3724L40.2011 25.7438C39.9803 26.3244 39.7856 26.8094 39.6188 27.1971C39.4511 27.5855 39.2819 27.9004 39.1101 28.1417C38.9384 28.3829 38.7544 28.5547 38.5581 28.6569C38.3618 28.7591 38.1205 28.8106 37.8343 28.8106C37.5644 28.8106 37.3501 28.7877 37.1899 28.7428C37.0304 28.6978 36.8807 28.6307 36.7425 28.5408L37.0492 27.6943C37.2128 27.7843 37.364 27.8415 37.5031 27.8661C37.6421 27.8906 37.7689 27.9029 37.8834 27.9029C38.1124 27.9029 38.3046 27.7867 38.4599 27.5536C38.6153 27.3206 38.7503 26.9754 38.8648 26.5175L35.6875 20.1629H36.8652L39.0602 24.6888Z" fill="#1F5CB8"/>
<path d="M48.5697 24.8134H44.4479V28.7513H43.4297V20.1641H44.4479V23.9056H48.5697V20.1641H49.5879V28.7513H48.5697V24.8134Z" fill="#1F5CB8"/>
<path d="M56.9223 22.9365L56.9959 21.9551H56.9469L56.4194 22.961L52.273 28.7513H51.6719V20.1641H52.6901V26.0524L52.6042 27.0216H52.6533L53.193 26.0156L57.3394 20.1641H57.9405V28.7513H56.9223V22.9365Z" fill="#1F5CB8"/>
<path d="M65.2081 22.1254C65.2081 22.3298 65.1754 22.5384 65.11 22.751C65.0445 22.9637 64.9464 23.1616 64.8155 23.3456C64.6847 23.5296 64.517 23.6915 64.3126 23.8306C64.1081 23.9696 63.8669 24.0759 63.5888 24.1495V24.1986C63.8342 24.2395 64.0689 24.309 64.2938 24.4071C64.5187 24.5053 64.7166 24.6402 64.8892 24.8119C65.0609 24.9837 65.1999 25.1922 65.3062 25.4376C65.4126 25.6829 65.4657 25.9733 65.4657 26.3086C65.4657 26.7502 65.3741 27.1329 65.1893 27.4552C65.0053 27.7782 64.764 28.0424 64.4655 28.2468C64.167 28.4513 63.8252 28.6026 63.4416 28.7007C63.0572 28.7989 62.6647 28.8479 62.2639 28.8479C62.1249 28.8479 61.9613 28.8479 61.7732 28.8479C61.5851 28.8479 61.3888 28.8414 61.1844 28.8291C60.9799 28.8169 60.7755 28.8005 60.571 28.7801C60.3666 28.7596 60.1866 28.7293 60.0312 28.6885V20.2362C60.3338 20.1871 60.6855 20.1462 61.0863 20.1135C61.487 20.0808 61.9245 20.0645 62.3989 20.0645C62.7178 20.0645 63.0433 20.0914 63.3737 20.1446C63.7049 20.1978 64.0051 20.3 64.2758 20.4513C64.5457 20.6026 64.7681 20.8136 64.9439 21.0835C65.1206 21.3525 65.2081 21.7001 65.2081 22.1254ZM61.6874 23.941C61.8264 23.941 61.994 23.9369 62.1903 23.9287C62.3866 23.9205 62.5502 23.9082 62.681 23.8919C62.8773 23.8265 63.0613 23.7471 63.2331 23.6523C63.4048 23.5582 63.5577 23.4478 63.6927 23.321C63.8276 23.1943 63.9339 23.0471 64.0116 22.8794C64.0893 22.7118 64.1278 22.5302 64.1278 22.3331C64.1278 22.0632 64.0771 21.8408 63.974 21.6649C63.8718 21.4891 63.7352 21.3484 63.5635 21.2421C63.3917 21.1358 63.1954 21.0606 62.9746 21.0148C62.7538 20.9698 62.5289 20.9477 62.2999 20.9477C62.03 20.9477 61.7822 20.9534 61.5573 20.9665C61.3324 20.9788 61.1623 20.9976 61.0486 21.0213V23.941H61.6874ZM62.3621 27.9647C62.6238 27.9647 62.8773 27.9336 63.1226 27.8731C63.368 27.8126 63.5847 27.7136 63.7728 27.5787C63.9609 27.4437 64.1098 27.2785 64.2202 27.0822C64.3306 26.886 64.3862 26.6529 64.3862 26.383C64.3862 26.0477 64.3183 25.7778 64.1842 25.5733C64.0492 25.3689 63.8734 25.2094 63.6567 25.0949C63.44 24.9804 63.1971 24.9027 62.9272 24.8618C62.6573 24.8209 62.3874 24.8005 62.1175 24.8005H61.0503V27.8796C61.1075 27.896 61.1893 27.9082 61.2956 27.9164C61.4019 27.9246 61.5164 27.9328 61.6391 27.941C61.7618 27.9491 61.8885 27.9557 62.0194 27.9598C62.1494 27.963 62.2639 27.9647 62.3621 27.9647Z" fill="#1F5CB8"/>
<path d="M67.1875 20.1641H71.8614V21.0719H68.2057V23.8811H71.5547V24.7889H68.2057V27.8435H71.9227V28.7513H67.1875V20.1641Z" fill="#1F5CB8"/>
<path d="M73.7656 20.2485C74.0764 20.1749 74.4117 20.1258 74.7716 20.1013C75.1314 20.0767 75.4872 20.0645 75.8388 20.0645C76.215 20.0645 76.5969 20.1013 76.9862 20.1749C77.3747 20.2485 77.7288 20.3834 78.047 20.5797C78.3659 20.776 78.6252 21.0458 78.8263 21.3893C79.0267 21.7328 79.1265 22.1704 79.1265 22.702C79.1265 23.2254 79.0324 23.667 78.8443 24.0268C78.6562 24.3867 78.4068 24.6795 78.096 24.9044C77.7853 25.1293 77.4295 25.2912 77.0288 25.3885C76.628 25.4867 76.215 25.5357 75.7898 25.5357C75.7489 25.5357 75.681 25.5357 75.5877 25.5357C75.4937 25.5357 75.3956 25.5341 75.2933 25.5292C75.1911 25.5251 75.0913 25.5194 74.9932 25.5104C74.895 25.5022 74.8255 25.494 74.7846 25.4858V28.749H73.7664V20.2485H73.7656ZM75.8634 20.9477C75.6507 20.9477 75.4463 20.9518 75.25 20.96C75.0537 20.9682 74.8983 20.9886 74.7838 21.0213V24.5789C74.8247 24.5952 74.8901 24.6059 74.9801 24.6099C75.0701 24.614 75.1641 24.6181 75.2623 24.6222C75.3604 24.6263 75.4544 24.6288 75.5444 24.6288C75.6344 24.6288 75.6998 24.6288 75.7407 24.6288C76.0187 24.6288 76.2944 24.6026 76.5683 24.5486C76.8423 24.4955 77.0901 24.3998 77.3101 24.2607C77.5309 24.1217 77.7092 23.9254 77.8441 23.6719C77.9791 23.4184 78.0461 23.0953 78.0461 22.7028C78.0461 22.3675 77.9824 22.0878 77.8564 21.8629C77.7296 21.638 77.562 21.458 77.3534 21.3231C77.1449 21.1882 76.9094 21.0925 76.6485 21.0352C76.3868 20.9763 76.1251 20.9477 75.8634 20.9477Z" fill="#1F5CB8"/>
<path d="M85.9063 28.3951C85.6609 28.5832 85.3501 28.7141 84.9739 28.7877C84.5977 28.8613 84.197 28.8981 83.7717 28.8981C83.2565 28.8981 82.774 28.8097 82.3242 28.6347C81.8744 28.4589 81.4818 28.1915 81.1465 27.8308C80.8112 27.471 80.5454 27.0113 80.3491 26.4503C80.1528 25.8901 80.0547 25.226 80.0547 24.4564C80.0547 23.655 80.1626 22.9745 80.3794 22.4135C80.5961 21.8533 80.8823 21.3953 81.2381 21.0395C81.5938 20.6838 81.9921 20.4245 82.4338 20.261C82.8754 20.0974 83.3252 20.0156 83.7832 20.0156C84.2739 20.0156 84.6746 20.0426 84.9854 20.095C85.2961 20.1481 85.5619 20.2201 85.7828 20.3092L85.5374 21.217C85.1449 21.0207 84.5846 20.9226 83.8568 20.9226C83.5215 20.9226 83.1902 20.9839 82.8631 21.1066C82.536 21.2293 82.2432 21.4297 81.9864 21.7077C81.7288 21.9858 81.5219 22.3497 81.3665 22.7995C81.2111 23.2493 81.1334 23.8014 81.1334 24.4556C81.1334 25.0445 81.207 25.5597 81.3542 26.0013C81.5014 26.4429 81.7042 26.811 81.961 27.1054C82.2187 27.3998 82.5213 27.6206 82.8688 27.7678C83.2164 27.915 83.5942 27.9886 84.004 27.9886C84.372 27.9886 84.6926 27.9518 84.9666 27.8782C85.2405 27.8046 85.4712 27.7106 85.6601 27.5961L85.9063 28.3951Z" fill="#1F5CB8"/>
<path d="M92.6723 22.9365L92.7459 21.9551H92.6969L92.1694 22.961L88.023 28.7513H87.4219V20.1641H88.4401V26.0524L88.3542 27.0216H88.4033L88.943 26.0156L93.0894 20.1641H93.6905V28.7513H92.6723V22.9365Z" fill="#1F5CB8"/>
<path d="M101.32 21.0719H98.6456V28.7513H97.6274V21.0719H94.9531V20.1641H101.32V21.0719Z" fill="#1F5CB8"/>
<path d="M102.578 20.1641H107.252V21.0719H103.596V23.8811H106.945V24.7889H103.596V27.8435H107.313V28.7513H102.578V20.1641Z" fill="#1F5CB8"/>
<path d="M114.703 21.0719H112.028V28.7513H111.01V21.0719H108.336V20.1641H114.703V21.0719Z" fill="#1F5CB8"/>
</svg>
