<svg width="18" height="18" viewBox="0 0 18 18" fill="none" xmlns="http://www.w3.org/2000/svg">
<circle cx="9" cy="9" r="8.5" stroke="#3483F9"/>
<path d="M8.69588 4.6H9.69188V8.764L9.48788 10.876H8.89988L8.69588 8.764V4.6ZM8.49188 12.448C8.49188 12.232 8.55188 12.064 8.67188 11.944C8.79988 11.816 8.96788 11.752 9.17588 11.752C9.39188 11.752 9.56388 11.816 9.69188 11.944C9.81988 12.064 9.88388 12.232 9.88388 12.448C9.88388 12.656 9.81988 12.824 9.69188 12.952C9.56388 13.08 9.39188 13.144 9.17588 13.144C8.96788 13.144 8.79988 13.08 8.67188 12.952C8.55188 12.824 8.49188 12.656 8.49188 12.448Z" fill="#3483F9"/>
</svg>
